<svg height="150" width="444">
<g transform="translate(40,10)"><g class="bar" transform="translate(0,110)"><rect x="1" width="5" height="0" stroke="#000" fill="red" opacity="0.5"></rect></g><g class="bar" transform="translate(5,110)"><rect x="1" width="5" height="0" stroke="#000" fill="red" opacity="0.5"></rect></g><g class="bar" transform="translate(9,110)"><rect x="1" width="5" height="0" stroke="#000" fill="red" opacity="0.5"></rect></g><g class="bar" transform="translate(14,110)"><rect x="1" width="5" height="0" stroke="#000" fill="red" opacity="0.5"></rect></g><g class="bar" transform="translate(18,110)"><rect x="1" width="5" height="0" stroke="#000" fill="red" opacity="0.5"></rect></g><g class="bar" transform="translate(23,110)"><rect x="1" width="5" height="0" stroke="#000" fill="red" opacity="0.5"></rect></g><g class="bar" transform="translate(27,109.89292667099286)"><rect x="1" width="5" height="0.10707332900713595" stroke="#000" fill="red" opacity="0.5"></rect></g><g class="bar" transform="translate(32,109.85723556132382)"><rect x="1" width="5" height="0.14276443867618127" stroke="#000" fill="red" opacity="0.5"></rect></g><g class="bar" transform="translate(36,109.78585334198573)"><rect x="1" width="5" height="0.2141466580142719" stroke="#000" fill="red" opacity="0.5"></rect></g><g class="bar" transform="translate(41,109.78585334198573)"><rect x="1" width="5" height="0.2141466580142719" stroke="#000" fill="red" opacity="0.5"></rect></g><g class="bar" transform="translate(45,109.07203114860481)"><rect x="1" width="5" height="0.9279688513951925" stroke="#000" fill="red" opacity="0.5"></rect></g><g class="bar" transform="translate(50,108.25113562621674)"><rect x="1" width="5" height="1.7488643737832632" stroke="#000" fill="red" opacity="0.5"></rect></g><g class="bar" transform="translate(54,107.18040233614536)"><rect x="1" width="5" height="2.819597663854637" stroke="#000" fill="red" opacity="0.5"></rect></g><g class="bar" transform="translate(59,105.39584685269305)"><rect x="1" width="5" height="4.6041531473069455" stroke="#000" fill="red" opacity="0.5"></rect></g><g class="bar" transform="translate(63,104.574951330305)"><rect x="1" width="5" height="5.425048669695002" stroke="#000" fill="red" opacity="0.5"></rect></g><g class="bar" transform="translate(68,103.14730694354316)"><rect x="1" width="5" height="6.852693056456843" stroke="#000" fill="red" opacity="0.5"></rect></g><g class="bar" transform="translate(72,101.11291369240753)"><rect x="1" width="5" height="8.887086307592469" stroke="#000" fill="red" opacity="0.5"></rect></g><g class="bar" transform="translate(77,100.22063595068137)"><rect x="1" width="5" height="9.77936404931863" stroke="#000" fill="red" opacity="0.5"></rect></g><g class="bar" transform="translate(81,98.2933160285529)"><rect x="1" width="5" height="11.706683971447106" stroke="#000" fill="red" opacity="0.5"></rect></g><g class="bar" transform="translate(86,99.0785204412719)"><rect x="1" width="5" height="10.921479558728095" stroke="#000" fill="red" opacity="0.5"></rect></g><g class="bar" transform="translate(90,97.7579493835172)"><rect x="1" width="5" height="12.2420506164828" stroke="#000" fill="red" opacity="0.5"></rect></g><g class="bar" transform="translate(95,99.93510707332901)"><rect x="1" width="5" height="10.064892926670993" stroke="#000" fill="red" opacity="0.5"></rect></g><g class="bar" transform="translate(99,101.04153147306944)"><rect x="1" width="5" height="8.95846852693056" stroke="#000" fill="red" opacity="0.5"></rect></g><g class="bar" transform="translate(104,101.7910447761194)"><rect x="1" width="5" height="8.208955223880594" stroke="#000" fill="red" opacity="0.5"></rect></g><g class="bar" transform="translate(108,104.18234912394549)"><rect x="1" width="5" height="5.817650876054515" stroke="#000" fill="red" opacity="0.5"></rect></g><g class="bar" transform="translate(113,105.21739130434783)"><rect x="1" width="5" height="4.782608695652172" stroke="#000" fill="red" opacity="0.5"></rect></g><g class="bar" transform="translate(117,106.18105126541207)"><rect x="1" width="5" height="3.8189487345879343" stroke="#000" fill="red" opacity="0.5"></rect></g><g class="bar" transform="translate(122,106.18105126541207)"><rect x="1" width="5" height="3.8189487345879343" stroke="#000" fill="red" opacity="0.5"></rect></g><g class="bar" transform="translate(126,107.32316677482154)"><rect x="1" width="5" height="2.6768332251784557" stroke="#000" fill="red" opacity="0.5"></rect></g><g class="bar" transform="translate(131,107.46593121349773)"><rect x="1" width="5" height="2.5340687865022744" stroke="#000" fill="red" opacity="0.5"></rect></g><g class="bar" transform="translate(135,107.64438676184295)"><rect x="1" width="5" height="2.355613238157048" stroke="#000" fill="red" opacity="0.5"></rect></g><g class="bar" transform="translate(140,107.57300454250486)"><rect x="1" width="5" height="2.4269954574951385" stroke="#000" fill="red" opacity="0.5"></rect></g><g class="bar" transform="translate(144,107.92991563919533)"><rect x="1" width="5" height="2.070084360804671" stroke="#000" fill="red" opacity="0.5"></rect></g><g class="bar" transform="translate(149,108.21544451654769)"><rect x="1" width="5" height="1.7845554834523085" stroke="#000" fill="red" opacity="0.5"></rect></g><g class="bar" transform="translate(153,107.6086956521739)"><rect x="1" width="5" height="2.391304347826093" stroke="#000" fill="red" opacity="0.5"></rect></g><g class="bar" transform="translate(158,107.50162232316677)"><rect x="1" width="5" height="2.498377676833229" stroke="#000" fill="red" opacity="0.5"></rect></g><g class="bar" transform="translate(162,106.78780012978585)"><rect x="1" width="5" height="3.2121998702141497" stroke="#000" fill="red" opacity="0.5"></rect></g><g class="bar" transform="translate(167,105.21739130434783)"><rect x="1" width="5" height="4.782608695652172" stroke="#000" fill="red" opacity="0.5"></rect></g><g class="bar" transform="translate(171,103.68267358857885)"><rect x="1" width="5" height="6.317326411421149" stroke="#000" fill="red" opacity="0.5"></rect></g><g class="bar" transform="translate(176,100.93445814406229)"><rect x="1" width="5" height="9.06554185593771" stroke="#000" fill="red" opacity="0.5"></rect></g><g class="bar" transform="translate(180,97.57949383517197)"><rect x="1" width="5" height="12.420506164828026" stroke="#000" fill="red" opacity="0.5"></rect></g><g class="bar" transform="translate(185,92.47566515249838)"><rect x="1" width="5" height="17.52433484750162" stroke="#000" fill="red" opacity="0.5"></rect></g><g class="bar" transform="translate(189,85.19467878001298)"><rect x="1" width="5" height="24.80532121998702" stroke="#000" fill="red" opacity="0.5"></rect></g><g class="bar" transform="translate(194,77.2355613238157)"><rect x="1" width="5" height="32.7644386761843" stroke="#000" fill="red" opacity="0.5"></rect></g><g class="bar" transform="translate(198,67.09928617780662)"><rect x="1" width="5" height="42.90071382219338" stroke="#000" fill="red" opacity="0.5"></rect></g><g class="bar" transform="translate(203,57.89097988319273)"><rect x="1" width="5" height="52.10902011680727" stroke="#000" fill="red" opacity="0.5"></rect></g><g class="bar" transform="translate(207,41.7585983127839)"><rect x="1" width="5" height="68.2414016872161" stroke="#000" fill="red" opacity="0.5"></rect></g><g class="bar" transform="translate(212,33.22842310188189)"><rect x="1" width="5" height="76.77157689811811" stroke="#000" fill="red" opacity="0.5"></rect></g><g class="bar" transform="translate(216,24.448410123296554)"><rect x="1" width="5" height="85.55158987670345" stroke="#000" fill="red" opacity="0.5"></rect></g><g class="bar" transform="translate(221,18.16677482154445)"><rect x="1" width="5" height="91.83322517845555" stroke="#000" fill="red" opacity="0.5"></rect></g><g class="bar" transform="translate(225,11.920830629461392)"><rect x="1" width="5" height="98.07916937053861" stroke="#000" fill="red" opacity="0.5"></rect></g><g class="bar" transform="translate(230,2.926670992861787)"><rect x="1" width="5" height="107.07332900713821" stroke="#000" fill="red" opacity="0.5"></rect></g><g class="bar" transform="translate(234,0.9993510707332831)"><rect x="1" width="5" height="109.00064892926672" stroke="#000" fill="red" opacity="0.5"></rect></g><g class="bar" transform="translate(239,0)"><rect x="1" width="5" height="110" stroke="#000" fill="red" opacity="0.5"></rect></g><g class="bar" transform="translate(243,3.247890979883195)"><rect x="1" width="5" height="106.7521090201168" stroke="#000" fill="red" opacity="0.5"></rect></g><g class="bar" transform="translate(248,6.460090850097345)"><rect x="1" width="5" height="103.53990914990266" stroke="#000" fill="red" opacity="0.5"></rect></g><g class="bar" transform="translate(252,7.280986372485401)"><rect x="1" width="5" height="102.7190136275146" stroke="#000" fill="red" opacity="0.5"></rect></g><g class="bar" transform="translate(257,14.34782608695653)"><rect x="1" width="5" height="95.65217391304347" stroke="#000" fill="red" opacity="0.5"></rect></g><g class="bar" transform="translate(261,23.87735236859183)"><rect x="1" width="5" height="86.12264763140817" stroke="#000" fill="red" opacity="0.5"></rect></g><g class="bar" transform="translate(266,34.58468526930565)"><rect x="1" width="5" height="75.41531473069435" stroke="#000" fill="red" opacity="0.5"></rect></g><g class="bar" transform="translate(270,44.042829331602846)"><rect x="1" width="5" height="65.95717066839715" stroke="#000" fill="red" opacity="0.5"></rect></g><g class="bar" transform="translate(275,52.43024010382869)"><rect x="1" width="5" height="57.56975989617131" stroke="#000" fill="red" opacity="0.5"></rect></g><g class="bar" transform="translate(279,61.3530175210902)"><rect x="1" width="5" height="48.6469824789098" stroke="#000" fill="red" opacity="0.5"></rect></g><g class="bar" transform="translate(284,70.63270603504219)"><rect x="1" width="5" height="39.36729396495781" stroke="#000" fill="red" opacity="0.5"></rect></g><g class="bar" transform="translate(288,76.95003244646334)"><rect x="1" width="5" height="33.04996755353666" stroke="#000" fill="red" opacity="0.5"></rect></g><g class="bar" transform="translate(293,83.05321219987022)"><rect x="1" width="5" height="26.946787800129783" stroke="#000" fill="red" opacity="0.5"></rect></g><g class="bar" transform="translate(297,87.19338092147956)"><rect x="1" width="5" height="22.80661907852044" stroke="#000" fill="red" opacity="0.5"></rect></g><g class="bar" transform="translate(302,93.08241401687216)"><rect x="1" width="5" height="16.917585983127836" stroke="#000" fill="red" opacity="0.5"></rect></g><g class="bar" transform="translate(306,96.08046722907203)"><rect x="1" width="5" height="13.919532770927972" stroke="#000" fill="red" opacity="0.5"></rect></g><g class="bar" transform="translate(311,99.50681375730045)"><rect x="1" width="5" height="10.49318624269955" stroke="#000" fill="red" opacity="0.5"></rect></g><g class="bar" transform="translate(315,101.75535366645036)"><rect x="1" width="5" height="8.244646333549639" stroke="#000" fill="red" opacity="0.5"></rect></g><g class="bar" transform="translate(320,103.5756002595717)"><rect x="1" width="5" height="6.424399740428299" stroke="#000" fill="red" opacity="0.5"></rect></g><g class="bar" transform="translate(324,105.14600908500974)"><rect x="1" width="5" height="4.853990914990263" stroke="#000" fill="red" opacity="0.5"></rect></g><g class="bar" transform="translate(329,106.25243348475016)"><rect x="1" width="5" height="3.7475665152498436" stroke="#000" fill="red" opacity="0.5"></rect></g><g class="bar" transform="translate(334,107.71576898118106)"><rect x="1" width="5" height="2.284231018818943" stroke="#000" fill="red" opacity="0.5"></rect></g><g class="bar" transform="translate(338,108.35820895522389)"><rect x="1" width="5" height="1.641791044776113" stroke="#000" fill="red" opacity="0.5"></rect></g><g class="bar" transform="translate(343,108.75081116158339)"><rect x="1" width="5" height="1.2491888384166145" stroke="#000" fill="red" opacity="0.5"></rect></g><g class="bar" transform="translate(347,108.71512005191434)"><rect x="1" width="5" height="1.2848799480856599" stroke="#000" fill="red" opacity="0.5"></rect></g><g class="bar" transform="translate(352,109.32186891628812)"><rect x="1" width="5" height="0.6781310837118752" stroke="#000" fill="red" opacity="0.5"></rect></g><g class="bar" transform="translate(356,109.42894224529526)"><rect x="1" width="5" height="0.5710577547047393" stroke="#000" fill="red" opacity="0.5"></rect></g><g class="bar" transform="translate(361,109.82154445165477)"><rect x="1" width="5" height="0.1784555483452266" stroke="#000" fill="red" opacity="0.5"></rect></g><g class="bar" transform="translate(365,109.71447112264764)"><rect x="1" width="5" height="0.28552887735236254" stroke="#000" fill="red" opacity="0.5"></rect></g><g class="bar" transform="translate(370,109.85723556132382)"><rect x="1" width="5" height="0.14276443867618127" stroke="#000" fill="red" opacity="0.5"></rect></g><g class="bar" transform="translate(374,109.92861778066191)"><rect x="1" width="5" height="0.07138221933809064" stroke="#000" fill="red" opacity="0.5"></rect></g><g class="bar" transform="translate(379,109.96430889033095)"><rect x="1" width="5" height="0.03569110966904532" stroke="#000" fill="red" opacity="0.5"></rect></g><g class="bar" transform="translate(383,109.96430889033095)"><rect x="1" width="5" height="0.03569110966904532" stroke="#000" fill="red" opacity="0.5"></rect></g><g class="bar" transform="translate(388,110)"><rect x="1" width="5" height="0" stroke="#000" fill="red" opacity="0.5"></rect></g><g class="bar" transform="translate(392,109.96430889033095)"><rect x="1" width="5" height="0.03569110966904532" stroke="#000" fill="red" opacity="0.5"></rect></g><g class="threshold" transform="translate(0,0)"><line stroke="red" stroke-width="3px" x1="0" x2="0" y1="0" y2="110"></line></g><g class="axis axis--x" transform="translate(0,110)" fill="none" font-size="10" font-family="sans-serif" text-anchor="middle"><path class="domain" stroke="#000" d="M0.5,6V0.5H394.5V6"></path><g class="tick" opacity="1" transform="translate(0.5,0)"><line stroke="#000" y2="6"></line><text fill="#000" y="9" dy="0.71em">0.00</text></g><g class="tick" opacity="1" transform="translate(45.5,0)"><line stroke="#000" y2="6"></line><text fill="#000" y="9" dy="0.71em">0.01</text></g><g class="tick" opacity="1" transform="translate(90.5,0)"><line stroke="#000" y2="6"></line><text fill="#000" y="9" dy="0.71em">0.02</text></g><g class="tick" opacity="1" transform="translate(135.5,0)"><line stroke="#000" y2="6"></line><text fill="#000" y="9" dy="0.71em">0.03</text></g><g class="tick" opacity="1" transform="translate(180.5,0)"><line stroke="#000" y2="6"></line><text fill="#000" y="9" dy="0.71em">0.04</text></g><g class="tick" opacity="1" transform="translate(225.5,0)"><line stroke="#000" y2="6"></line><text fill="#000" y="9" dy="0.71em">0.05</text></g><g class="tick" opacity="1" transform="translate(270.5,0)"><line stroke="#000" y2="6"></line><text fill="#000" y="9" dy="0.71em">0.06</text></g><g class="tick" opacity="1" transform="translate(315.5,0)"><line stroke="#000" y2="6"></line><text fill="#000" y="9" dy="0.71em">0.07</text></g><g class="tick" opacity="1" transform="translate(361.5,0)"><line stroke="#000" y2="6"></line><text fill="#000" y="9" dy="0.71em">0.08</text></g></g><g class="axis axis--y" transform="translate(0, 0)" fill="none" font-size="10" font-family="sans-serif" text-anchor="end"><path class="domain" stroke="#000" d="M-6,110.5H0.5V0.5H-6"></path><g class="tick" opacity="1" transform="translate(0,110.5)"><line stroke="#000" x2="-6"></line><text fill="#000" x="-9" dy="0.32em">0</text></g><g class="tick" opacity="1" transform="translate(0,103.36177806619078)"><line stroke="#000" x2="-6"></line><text fill="#000" x="-9" dy="0.32em">200</text></g><g class="tick" opacity="1" transform="translate(0,96.22355613238157)"><line stroke="#000" x2="-6"></line><text fill="#000" x="-9" dy="0.32em">400</text></g><g class="tick" opacity="1" transform="translate(0,89.08533419857235)"><line stroke="#000" x2="-6"></line><text fill="#000" x="-9" dy="0.32em">600</text></g><g class="tick" opacity="1" transform="translate(0,81.94711226476315)"><line stroke="#000" x2="-6"></line><text fill="#000" x="-9" dy="0.32em">800</text></g><g class="tick" opacity="1" transform="translate(0,74.80889033095393)"><line stroke="#000" x2="-6"></line><text fill="#000" x="-9" dy="0.32em">1,000</text></g><g class="tick" opacity="1" transform="translate(0,67.67066839714471)"><line stroke="#000" x2="-6"></line><text fill="#000" x="-9" dy="0.32em">1,200</text></g><g class="tick" opacity="1" transform="translate(0,60.532446463335496)"><line stroke="#000" x2="-6"></line><text fill="#000" x="-9" dy="0.32em">1,400</text></g><g class="tick" opacity="1" transform="translate(0,53.394224529526284)"><line stroke="#000" x2="-6"></line><text fill="#000" x="-9" dy="0.32em">1,600</text></g><g class="tick" opacity="1" transform="translate(0,46.256002595717064)"><line stroke="#000" x2="-6"></line><text fill="#000" x="-9" dy="0.32em">1,800</text></g><g class="tick" opacity="1" transform="translate(0,39.11778066190786)"><line stroke="#000" x2="-6"></line><text fill="#000" x="-9" dy="0.32em">2,000</text></g><g class="tick" opacity="1" transform="translate(0,31.979558728098638)"><line stroke="#000" x2="-6"></line><text fill="#000" x="-9" dy="0.32em">2,200</text></g><g class="tick" opacity="1" transform="translate(0,24.84133679428942)"><line stroke="#000" x2="-6"></line><text fill="#000" x="-9" dy="0.32em">2,400</text></g><g class="tick" opacity="1" transform="translate(0,17.7031148604802)"><line stroke="#000" x2="-6"></line><text fill="#000" x="-9" dy="0.32em">2,600</text></g><g class="tick" opacity="1" transform="translate(0,10.564892926670993)"><line stroke="#000" x2="-6"></line><text fill="#000" x="-9" dy="0.32em">2,800</text></g><g class="tick" opacity="1" transform="translate(0,3.426670992861787)"><line stroke="#000" x2="-6"></line><text fill="#000" x="-9" dy="0.32em">3,000</text></g></g><g class="autoThresholds"><text text-anchor="middle" transform="translate(451,5)" style="cursor: pointer;">placeHolder<title>placeHolder</title></text><line stroke="blue" x1="451" x2="451" y1="10" y2="110"></line></g></g></svg>