<?xml version="1.0" encoding="iso-8859-1"?>
<!-- Generator: Adobe Illustrator 18.0.0, SVG Export Plug-In . SVG Version: 6.00 Build 0)  -->
<!DOCTYPE svg PUBLIC "-//W3C//DTD SVG 1.1//EN" "http://www.w3.org/Graphics/SVG/1.1/DTD/svg11.dtd">
<svg version="1.1" id="Capa_1" xmlns="http://www.w3.org/2000/svg" xmlns:xlink="http://www.w3.org/1999/xlink" x="0px" y="0px"
	 viewBox="0 0 437.98 437.98" style="enable-background:new 0 0 437.98 437.98;" xml:space="preserve">
<path d="M398.788,78.142l-4.367-0.874c0.027-0.557,0.048-1.114,0.048-1.674c0-21.484-19.7-41.063-55.471-55.129
	C305.441,7.268,260.983,0,213.815,0S122.19,7.268,88.632,20.465C52.861,34.532,33.162,54.111,33.162,75.594
	s19.7,41.062,55.471,55.129c33.558,13.197,78.016,20.464,125.183,20.464c47.168,0,91.626-7.268,125.183-20.464
	c17.412-6.847,31.003-15.003,40.381-24.046c-0.529,8.439-1.999,18.594-5.403,29.269c-11.532,36.165-38.875,61.116-81.272,74.161
	c-54.269,16.698-98.512,35.91-127.947,55.56c-31.933,21.317-46.983,43.04-44.733,64.564c1.17,11.188,5.575,18.923,13.092,22.99
	c18.336,9.923,49.666-6.178,85.94-24.822c43.958-22.592,93.778-48.197,113.763-22.786c9.461,12.032,8.997,29.652-1.103,41.896
	c-14.771,17.905-47.01,37.267-116.71,27.839c-11.766-1.592-23.309,0.272-33.388,5.391c-20.945,10.636-27.47,29.823-17.901,52.641
	c1.205,2.873,3.989,4.602,6.919,4.602c0.967,0,1.95-0.188,2.897-0.585c3.82-1.602,5.618-5.997,4.016-9.817
	c-6.593-15.721-3.142-26.355,10.86-33.466c7.351-3.733,15.852-5.08,24.584-3.9c76.538,10.356,113.098-12.316,130.292-33.158
	c14.555-17.644,15.112-43.177,1.323-60.712c-12.694-16.145-32.583-20.262-60.803-12.59c-22.712,6.175-47.569,18.951-71.608,31.307
	c-28.388,14.59-60.565,31.128-71.945,24.97c-1.081-0.585-4.371-2.365-5.311-11.356c-3.394-32.466,58.747-72.404,162.173-104.228
	c59.335-18.257,82.43-56.075,91.355-84.586c6.007-19.188,6.544-36.612,6.052-47.272l1.323,0.265
	c0.496,0.099,0.991,0.147,1.479,0.147c3.502,0,6.633-2.465,7.347-6.031C405.484,82.905,402.85,78.954,398.788,78.142z
	 M333.509,116.764c-31.851,12.525-74.359,19.424-119.693,19.424c-45.334,0-87.842-6.898-119.693-19.424
	c-29.208-11.486-45.96-26.492-45.96-41.17s16.752-29.684,45.96-41.17C125.974,21.898,168.481,15,213.815,15
	c45.334,0,87.842,6.898,119.693,19.424c28.329,11.141,44.939,25.593,45.913,39.844l-3.133-0.627
	c-4.062-0.809-8.012,1.822-8.825,5.884c-0.812,4.062,1.822,8.013,5.884,8.825l1.76,0.352
	C368.366,98.903,354.012,108.701,333.509,116.764z"/>
<g>
</g>
<g>
</g>
<g>
</g>
<g>
</g>
<g>
</g>
<g>
</g>
<g>
</g>
<g>
</g>
<g>
</g>
<g>
</g>
<g>
</g>
<g>
</g>
<g>
</g>
<g>
</g>
<g>
</g>
</svg>
